<svg width="105" height="12" viewBox="0 0 105 12" fill="none" xmlns="http://www.w3.org/2000/svg">
<path fill-rule="evenodd" clip-rule="evenodd" d="M32.1615 0.974703H34.1101V10.981H32.959C32.7856 10.981 32.6469 10.9517 32.5291 10.9003C32.4112 10.8417 32.3002 10.7464 32.1893 10.5925L29.5473 7.0811C28.521 5.70294 27.4947 4.32479 26.4684 2.94664V10.1893H27.0994V4.64L27.7513 5.51235V10.9736H25.8097V0.967374H25.8582L32.7926 10.1746H33.4236V1.7884H32.7926V9.33159L26.4962 0.960042C26.4962 0.960042 27.2659 0.960042 27.1896 0.960042C27.467 0.960042 27.6403 1.23861 27.7028 1.31924L32.217 7.323C32.2031 7.13241 32.1893 6.94181 32.1754 6.76588C32.1685 6.58261 32.1615 6.41401 32.1615 6.25274V0.960042V0.974703ZM35.6773 0.974703H41.8003V2.76337H37.8962V4.43475H37.0641V2.19892H41.1138V1.53183H36.4331V10.3945H41.1138V9.72744H37.0641V5.0945H40.8849V6.80986H38.5273V6.2674H40.2193V5.60031H37.8962V9.18498H41.8003V10.9736H35.6773V0.967374V0.974703ZM24.402 3.96559C24.6378 4.58869 24.7557 5.25577 24.7557 5.97417C24.7557 6.69257 24.6378 7.37432 24.402 7.99742C24.1662 8.62052 23.8264 9.16299 23.3965 9.61748C22.9666 10.072 22.4465 10.4385 21.8363 10.6951C21.233 10.959 20.5534 11.0836 19.8184 11.0836C19.0833 11.0836 18.4038 10.9517 17.7936 10.6951C17.1833 10.4312 16.6702 10.072 16.2333 9.61748C15.8034 9.15566 15.4636 8.62052 15.2278 7.99742C14.9921 7.37432 14.8742 6.6999 14.8742 5.97417C14.8742 5.24844 14.9921 4.57403 15.2278 3.95093C15.4636 3.32783 15.8034 2.78536 16.2333 2.33087C16.6633 1.87637 17.1833 1.51717 17.7936 1.25327C18.4038 0.989365 19.0764 0.864746 19.8184 0.864746C19.9155 0.864746 20.0125 0.864746 20.1096 0.864746V2.13294C20.2761 2.1476 20.4355 2.16226 20.5881 2.19892C20.8239 2.25023 21.0596 2.32354 21.2746 2.41883C21.4896 2.51413 21.6907 2.63875 21.8779 2.7707C22.0582 2.90265 22.2315 3.05659 22.3841 3.2252C22.5367 3.3938 22.6753 3.5844 22.7932 3.78233C22.9111 3.98758 23.0151 4.2075 23.0983 4.44208C23.1815 4.67666 23.2509 4.91857 23.2925 5.17514C23.3341 5.43171 23.3549 5.69561 23.3549 5.96684C23.3549 6.23808 23.3341 6.50931 23.2925 6.76588C23.2509 7.02245 23.1885 7.26436 23.0983 7.49894C23.0151 7.73352 22.9111 7.95344 22.7932 8.15136C22.6753 8.35662 22.5367 8.53989 22.3841 8.71582C22.2315 8.89175 22.0651 9.0457 21.8779 9.17765C21.6907 9.3096 21.4896 9.42689 21.2746 9.52219C21.0596 9.61748 20.8308 9.69079 20.5881 9.7421C20.3454 9.79342 20.0888 9.81541 19.8184 9.81541C19.5479 9.81541 19.2914 9.79342 19.0487 9.7421C18.806 9.69079 18.5771 9.61748 18.3622 9.52219C18.1403 9.42689 17.9392 9.3096 17.7589 9.17765C17.5716 9.0457 17.4052 8.89175 17.2527 8.71582C17.1001 8.54722 16.9614 8.35662 16.8366 8.15136C16.7187 7.94611 16.6147 7.73352 16.5315 7.49894C16.4483 7.26436 16.3789 7.02245 16.3373 6.76588C16.2957 6.50931 16.2749 6.24541 16.2749 5.96684C16.2749 5.68828 16.2957 5.42438 16.3373 5.16781C16.3789 4.91124 16.4414 4.66933 16.5315 4.43475C16.6147 4.20017 16.7187 3.98025 16.8436 3.77499C16.9614 3.56974 17.1001 3.38647 17.2527 3.21787C17.4052 3.04926 17.5786 2.89532 17.7658 2.76337C17.953 2.63142 18.1541 2.51413 18.3691 2.41883C18.5217 2.35286 18.6811 2.29421 18.8476 2.25023V2.9393C18.7921 2.9613 18.7366 2.98329 18.6881 3.00528C18.3552 3.15189 18.0779 3.36448 17.849 3.63571C17.6202 3.91428 17.4468 4.24415 17.322 4.64C17.2041 5.03586 17.1417 5.48302 17.1417 5.97417C17.1417 6.46532 17.2041 6.91982 17.322 7.31568C17.4468 7.71153 17.6202 8.04873 17.849 8.31997C18.0779 8.59853 18.3622 8.80379 18.6881 8.9504C19.0209 9.09701 19.4023 9.17032 19.8253 9.17032C20.2483 9.17032 20.6228 9.09701 20.9556 8.9504C21.2885 8.80379 21.5658 8.59853 21.7947 8.31997C22.0235 8.04873 22.1969 7.71153 22.3217 7.31568C22.4396 6.91982 22.502 6.47265 22.502 5.97417C22.502 5.47569 22.4396 5.03586 22.3217 4.64C22.1969 4.24415 22.0235 3.90694 21.7947 3.63571C21.5658 3.35715 21.2885 3.15189 20.9556 3.00528C20.6228 2.85867 20.2483 2.78536 19.8253 2.78536C19.7074 2.78536 19.5965 2.78536 19.4855 2.80002V1.56848C19.3052 1.58314 19.1319 1.60514 18.9585 1.64179C18.6811 1.70043 18.4107 1.78107 18.1611 1.89836C17.9114 2.00832 17.6757 2.1476 17.4607 2.30154C17.2457 2.45549 17.0446 2.63875 16.8644 2.83668C16.6841 3.0346 16.5246 3.25452 16.3859 3.4891C16.2472 3.72368 16.1293 3.98025 16.0322 4.24415C15.9351 4.51538 15.8589 4.79395 15.8103 5.07984C15.7618 5.37307 15.7341 5.66629 15.7341 5.97417C15.7341 6.28206 15.7618 6.58261 15.8103 6.87584C15.8589 7.16906 15.9351 7.44763 16.0322 7.71153C16.1293 7.97543 16.2472 8.232 16.3859 8.46658C16.5246 8.70116 16.6841 8.92108 16.8644 9.119C17.0446 9.31693 17.2457 9.5002 17.4607 9.66147C17.6757 9.81541 17.9114 9.95469 18.1611 10.0647C18.4176 10.1819 18.6811 10.2626 18.9585 10.3212C19.2359 10.3799 19.5271 10.4019 19.8253 10.4019C20.1235 10.4019 20.4147 10.3725 20.6921 10.3212C20.9695 10.2626 21.233 10.1819 21.4896 10.0647C21.7392 9.94736 21.975 9.81541 22.1899 9.66147C22.4049 9.50753 22.606 9.32426 22.7863 9.119C22.9666 8.92108 23.1261 8.70116 23.2578 8.46658C23.3965 8.232 23.5144 7.98276 23.6115 7.71153C23.7085 7.4403 23.7848 7.16173 23.8334 6.87584C23.8819 6.58261 23.9027 6.28939 23.9027 5.97417C23.9027 5.65896 23.8819 5.37307 23.8334 5.07984C23.7848 4.79395 23.7085 4.51538 23.6115 4.24415C23.5144 3.97292 23.3965 3.72368 23.2578 3.4891C23.1191 3.25452 22.9596 3.04193 22.7863 2.83668C22.6129 2.63142 22.4118 2.45549 22.1899 2.30154C21.975 2.1476 21.7461 2.00832 21.4965 1.89103C21.2607 1.7884 21.0111 1.70043 20.7476 1.64179V0.930722C21.1359 0.996697 21.5034 1.09932 21.8502 1.25327C22.4604 1.51717 22.9735 1.87637 23.4104 2.33087C23.8473 2.78536 24.1732 3.32783 24.4159 3.95093L24.402 3.96559ZM51.3628 6.70723C51.4876 7.00046 51.543 7.35966 51.543 7.7775C51.543 8.23933 51.4668 8.67183 51.3142 9.07502C51.1617 9.4782 50.9398 9.83007 50.6554 10.1233C50.3642 10.4238 50.0106 10.6584 49.5806 10.827C49.1576 10.9956 48.6722 11.0836 48.1383 11.0836C47.8401 11.0836 47.5419 11.0543 47.2368 10.9883C46.9317 10.9223 46.6335 10.8344 46.3492 10.7171C46.0649 10.5998 45.7945 10.4678 45.5379 10.2992C45.2883 10.138 45.0664 9.96202 44.8791 9.7641L45.531 8.67917C45.5795 8.59853 45.6489 8.53256 45.7321 8.48124C45.8222 8.42993 45.9123 8.40793 46.0164 8.40793C46.1481 8.40793 46.2799 8.45192 46.4116 8.53988C46.5434 8.62785 46.6959 8.72315 46.8624 8.83311C47.0288 8.93574 47.223 9.03104 47.4379 9.119C47.6598 9.20697 47.9164 9.25095 48.2076 9.25095C48.6098 9.25095 48.9219 9.15565 49.1438 8.97239C49.3657 8.78912 49.4766 8.4959 49.4766 8.09272C49.4766 7.85814 49.4142 7.66754 49.2963 7.52093C49.1715 7.37432 49.012 7.25703 48.8179 7.16173C48.6237 7.06644 48.3949 6.97847 48.1383 6.90516C47.8817 6.83185 47.6251 6.75122 47.3616 6.65592C47.0981 6.56795 46.8346 6.45799 46.585 6.32604C46.3354 6.19409 46.1065 6.01816 45.9124 5.8129C45.7113 5.60031 45.5518 5.33641 45.427 5.01387C45.3091 4.69865 45.2467 4.3028 45.2467 3.84097C45.2467 3.46711 45.316 3.10058 45.4616 2.74138C45.6072 2.38218 45.8153 2.06696 46.0927 1.7884C46.37 1.50984 46.7098 1.28259 47.1189 1.11399C47.5211 0.945383 47.9857 0.864746 48.5058 0.864746C48.7971 0.864746 49.0814 0.886738 49.3587 0.930722C49.6361 0.982036 49.8927 1.05534 50.1423 1.14331C50.392 1.2386 50.6277 1.34857 50.8357 1.48052C51.0507 1.61247 51.2449 1.75908 51.4113 1.92035L50.8635 2.99795C50.8011 3.10791 50.7317 3.18855 50.6554 3.24719C50.5792 3.30584 50.489 3.32783 50.3781 3.32783C50.281 3.32783 50.1701 3.29117 50.0591 3.2252C49.9482 3.15922 49.8095 3.08592 49.6638 3.00528C49.5182 2.92464 49.3518 2.84401 49.1646 2.77803C48.9773 2.71206 48.7624 2.68274 48.5266 2.68274C48.1175 2.68274 47.8054 2.77803 47.6043 2.9613C47.4032 3.14456 47.2992 3.40113 47.2992 3.71635C47.2992 3.91428 47.3616 4.08288 47.4795 4.21483C47.6043 4.34678 47.7638 4.46407 47.9649 4.55937C48.166 4.65467 48.3879 4.74263 48.6445 4.82327C48.9011 4.90391 49.1576 4.99187 49.4211 5.08717C49.6846 5.18247 49.9481 5.30709 50.2047 5.43904C50.4613 5.57099 50.6901 5.7396 50.8843 5.94485C51.0785 6.15011 51.2379 6.39935 51.3628 6.69257V6.70723ZM11.3238 9.12633H14.8465V10.981H9.11867V0.974703H11.3238V9.12633ZM2.45477 4.64734C2.32301 5.04319 2.25367 5.48302 2.25367 5.97417C2.25367 6.46532 2.32301 6.94182 2.45477 7.345C2.58652 7.74085 2.76681 8.07806 2.99565 8.34929C3.22448 8.62052 3.48798 8.82578 3.79309 8.97239C4.0982 9.119 4.42412 9.18498 4.77084 9.18498C4.97194 9.18498 5.15223 9.17032 5.31866 9.15565C5.48508 9.14099 5.63762 9.09701 5.77631 9.0457C5.92193 8.99438 6.0537 8.92841 6.18545 8.8551C6.31721 8.77446 6.44202 8.67184 6.57378 8.55455C6.62925 8.51056 6.68473 8.47391 6.74713 8.43726C6.80954 8.40793 6.87195 8.39327 6.93435 8.39327C6.98983 8.39327 7.03838 8.40793 7.09385 8.42259C7.14933 8.44459 7.19787 8.48124 7.24641 8.53255L8.12012 9.50019C7.73873 10.028 7.26027 10.4238 6.67779 10.6878C6.10224 10.9517 5.42266 11.0909 4.63214 11.0909C3.91097 11.0909 3.26608 10.959 2.69053 10.7024C2.12192 10.4458 1.63651 10.0866 1.23431 9.63215C0.839056 9.17765 0.527005 8.63518 0.318974 8.01208C0.104009 7.38898 0 6.71457 0 5.98151C0 5.24845 0.117883 4.55204 0.36752 3.92161C0.610222 3.2985 0.950007 2.75604 1.38687 2.30154C1.82374 1.84705 2.34382 1.49518 2.95404 1.24594C3.56426 0.989367 4.2369 0.864746 4.97194 0.864746C5.33253 0.864746 5.66537 0.894066 5.98435 0.960042C6.2964 1.02602 6.59457 1.12132 6.86501 1.23861C7.14238 1.3559 7.39201 1.49518 7.62085 1.65645C7.84968 1.81772 8.05772 2.00099 8.23802 2.19892L7.48909 3.24719C7.44055 3.31317 7.38508 3.37181 7.31574 3.42312C7.25333 3.47444 7.15625 3.50376 7.03837 3.50376C6.96209 3.50376 6.8858 3.48177 6.81646 3.44512C6.74712 3.40847 6.67086 3.36448 6.59458 3.31317C6.5183 3.25452 6.42816 3.20321 6.33801 3.13723C6.24786 3.07859 6.13691 3.01994 6.00515 2.96863C5.8734 2.91731 5.72778 2.87333 5.55442 2.83668C5.38107 2.80002 5.17997 2.77803 4.95114 2.77803C4.54895 2.77803 4.18141 2.85134 3.8555 2.99795C3.52265 3.14456 3.23833 3.35715 3.00257 3.63571C2.7668 3.91428 2.57958 4.25148 2.44783 4.64734H2.45477ZM101.789 6.6999C101.907 6.99313 101.97 7.35233 101.97 7.77017C101.97 8.232 101.893 8.66451 101.741 9.06769C101.588 9.47087 101.366 9.82274 101.082 10.116C100.791 10.4165 100.437 10.6511 100.007 10.8197C99.5843 10.9956 99.1058 11.0836 98.5649 11.0836C98.2667 11.0836 97.9686 11.0543 97.6634 10.9883C97.3583 10.9223 97.0601 10.8344 96.7689 10.7171C96.4777 10.5998 96.2142 10.4678 95.9576 10.2992C95.708 10.138 95.4861 9.96202 95.2988 9.7641L95.9507 8.67917C95.9992 8.59853 96.0616 8.53256 96.1518 8.48124C96.2419 8.42993 96.3321 8.4006 96.4361 8.4006C96.5678 8.4006 96.6996 8.44459 96.8313 8.53255C96.9631 8.62052 97.1156 8.71582 97.2821 8.81845C97.4554 8.92108 97.6426 9.02371 97.8576 9.11167C98.0726 9.19964 98.3292 9.24362 98.6273 9.24362C99.0295 9.24362 99.3346 9.14833 99.5565 8.96506C99.7784 8.7818 99.8894 8.48857 99.8894 8.08539C99.8894 7.85081 99.827 7.66021 99.7091 7.5136C99.5843 7.36699 99.4248 7.2497 99.2306 7.1544C99.0365 7.0591 98.8076 6.97114 98.551 6.89783C98.2945 6.82453 98.0379 6.74389 97.7744 6.65592C97.5109 6.56795 97.2474 6.45799 96.9978 6.32604C96.7481 6.19409 96.5193 6.02549 96.3251 5.8129C96.131 5.60031 95.9645 5.33641 95.8466 5.01387C95.7218 4.69865 95.6663 4.3028 95.6663 3.84097C95.6663 3.46711 95.7357 3.10058 95.8813 2.74138C96.0269 2.38218 96.235 2.06696 96.5123 1.7884C96.7897 1.50984 97.1295 1.28259 97.5386 1.11399C97.9478 0.945383 98.4054 0.864746 98.9255 0.864746C99.2167 0.864746 99.5011 0.886737 99.7784 0.938051C100.056 0.982035 100.312 1.05534 100.562 1.15064C100.812 1.24594 101.04 1.3559 101.255 1.48785C101.47 1.6198 101.665 1.76641 101.831 1.93501L101.283 3.01261C101.221 3.12257 101.151 3.20321 101.075 3.26185C100.999 3.3205 100.909 3.34249 100.798 3.34249C100.694 3.34249 100.59 3.30584 100.472 3.24719C100.354 3.18122 100.229 3.10791 100.077 3.02727C99.931 2.94663 99.7646 2.866 99.5773 2.80735C99.3901 2.74138 99.1751 2.71206 98.9394 2.71206C98.5233 2.71206 98.2182 2.80002 98.0171 2.99062C97.816 3.18121 97.712 3.43046 97.712 3.74567C97.712 3.9436 97.7744 4.1122 97.8923 4.24415C98.0102 4.3761 98.1766 4.49339 98.3707 4.58869C98.5649 4.68399 98.7937 4.77196 99.0503 4.85259C99.3069 4.93323 99.5635 5.0212 99.827 5.12382C100.09 5.21912 100.354 5.33641 100.611 5.46836C100.867 5.60031 101.089 5.76892 101.29 5.97417C101.484 6.17943 101.644 6.42867 101.769 6.7219L101.789 6.6999ZM76.368 0.974703H82.4911V2.76337H78.587V5.10183H81.5758V6.81719H78.587V9.19964H82.4911V10.9883H76.368V0.982036V0.974703ZM92.747 0.974703H94.432V10.981H92.4835V5.22645C92.4835 4.94789 92.4973 4.64734 92.5251 4.31746L90.0079 9.46354C89.9316 9.62481 89.8276 9.7421 89.6959 9.82274C89.5641 9.90338 89.4116 9.94736 89.2382 9.94736H88.94C88.7667 9.94736 88.621 9.90338 88.4893 9.82274C88.3575 9.7421 88.2535 9.61748 88.1703 9.46354L85.6393 4.31013C85.6531 4.4714 85.667 4.62534 85.6809 4.78662C85.6878 4.94056 85.6947 5.0945 85.6947 5.22645V10.981H83.7462V0.974703H85.4313C85.5283 0.974703 85.6115 0.974703 85.6809 0.974703C85.7502 0.974703 85.8126 0.989366 85.8681 1.01869C85.9236 1.04068 85.9791 1.07733 86.0276 1.12865C86.0692 1.17263 86.1177 1.24594 86.1594 1.3339L88.6072 6.40668C88.6973 6.58261 88.7805 6.76588 88.8568 6.94915C88.9331 7.13974 89.0163 7.33034 89.0857 7.52826C89.1619 7.33034 89.2382 7.13241 89.3214 6.94181C89.4046 6.75122 89.4878 6.56795 89.578 6.39202L92.0189 1.34123C92.0605 1.25327 92.109 1.18729 92.1506 1.13598C92.1992 1.08466 92.2477 1.05534 92.3032 1.02602C92.3587 1.00403 92.4211 0.989366 92.4974 0.982036C92.5736 0.974705 92.6568 0.982036 92.747 0.982036V0.974703ZM67.2771 6.6999C67.4019 6.99313 67.4574 7.35233 67.4574 7.77017C67.4574 8.232 67.3811 8.66451 67.2286 9.06769C67.076 9.47087 66.861 9.82274 66.5698 10.1233C66.2786 10.4238 65.9249 10.6584 65.5019 10.827C65.0789 10.9956 64.5935 11.0836 64.0526 11.0836C63.7545 11.0836 63.4563 11.0543 63.1512 10.9883C62.8461 10.9223 62.5479 10.8344 62.2636 10.7171C61.9723 10.5998 61.7019 10.4605 61.4522 10.2992C61.2026 10.138 60.9807 9.96202 60.7935 9.7641L61.4453 8.67917C61.4938 8.59853 61.5632 8.53256 61.6464 8.48124C61.7296 8.42993 61.8267 8.40793 61.9238 8.40793C62.0555 8.40793 62.1873 8.45192 62.319 8.53988C62.4508 8.62785 62.6033 8.72315 62.7698 8.83311C62.9362 8.93574 63.1304 9.03104 63.3453 9.119C63.5603 9.20697 63.8169 9.25095 64.115 9.25095C64.5172 9.25095 64.8223 9.15565 65.0442 8.97239C65.2661 8.78912 65.3771 8.4959 65.3771 8.09272C65.3771 7.85814 65.3147 7.66754 65.1968 7.52093C65.0789 7.37432 64.9194 7.25703 64.7183 7.1544C64.5172 7.0591 64.2953 6.97114 64.0388 6.90516C63.7891 6.83185 63.5256 6.75122 63.2621 6.65592C62.9986 6.56795 62.7351 6.45799 62.4855 6.32604C62.2358 6.19409 62.007 6.02549 61.8128 5.8129C61.6187 5.60031 61.4523 5.33641 61.3344 5.01387C61.2096 4.69865 61.1541 4.3028 61.1541 3.84097C61.1541 3.46711 61.2234 3.10058 61.369 2.74138C61.5147 2.38218 61.7227 2.06696 62.0001 1.7884C62.2774 1.50984 62.6172 1.28992 63.0194 1.12132C63.4285 0.952712 63.8862 0.872075 64.4063 0.872075C64.6975 0.872075 64.9818 0.894067 65.2592 0.938051C65.5366 0.989365 65.7931 1.05534 66.0428 1.15064C66.2924 1.24594 66.5213 1.3559 66.7362 1.48785C66.9512 1.6198 67.1454 1.76641 67.3118 1.92768L66.764 3.00528C66.7016 3.11524 66.6322 3.19588 66.5629 3.25452C66.4866 3.31317 66.3964 3.33516 66.2855 3.33516C66.1884 3.33516 66.0775 3.29851 65.9665 3.23253C65.8556 3.16655 65.7169 3.09325 65.5713 3.01261C65.4256 2.93198 65.2592 2.85867 65.072 2.79269C64.8848 2.72672 64.6698 2.6974 64.434 2.6974C64.018 2.6974 63.7128 2.79269 63.5117 2.97596C63.3107 3.15922 63.2066 3.4158 63.2066 3.73101C63.2066 3.92894 63.2691 4.09754 63.3869 4.22949C63.5118 4.36144 63.6712 4.47873 63.8654 4.57403C64.0665 4.66933 64.2884 4.75729 64.545 4.83793C64.8015 4.91857 65.0581 5.00654 65.3216 5.10183C65.5851 5.19713 65.8486 5.32175 66.1052 5.44637C66.3618 5.57832 66.5837 5.74692 66.7848 5.95951C66.9789 6.16477 67.1384 6.41401 67.2632 6.70723L67.2771 6.6999ZM60.8282 0.974703L57.3818 7.17639V10.981H55.1767V7.17639L51.7303 0.974703H53.6719C53.8661 0.974703 54.0186 1.01869 54.1296 1.11399C54.2405 1.20928 54.3307 1.32657 54.4069 1.47318L55.7522 4.38343C55.8632 4.61801 55.9602 4.8306 56.0504 5.02853C56.1405 5.22645 56.2237 5.41705 56.2931 5.61498C56.3555 5.41705 56.4387 5.21912 56.5288 5.0212C56.619 4.82327 56.7161 4.61068 56.827 4.38343L58.1584 1.47318C58.1862 1.41454 58.2208 1.35589 58.2694 1.28992C58.3179 1.23127 58.3665 1.17996 58.4289 1.12865C58.4844 1.07733 58.5537 1.04068 58.63 1.01136C58.7062 0.982033 58.7895 0.967374 58.8796 0.967374H60.8351L60.8282 0.974703ZM67.9012 0.974703H75.4527V2.81469H72.7761V10.981H70.5709V2.81469H67.9012V0.974703V0.974703ZM105 10.6218C105 10.7464 104.986 10.871 104.951 10.9883C104.924 11.1056 104.875 11.2156 104.82 11.3182C104.764 11.4208 104.695 11.5161 104.612 11.5967C104.528 11.6774 104.445 11.7507 104.348 11.8093C104.251 11.868 104.147 11.912 104.036 11.9486C103.925 11.9779 103.807 11.9999 103.689 11.9999C103.572 11.9999 103.454 11.9853 103.343 11.9486C103.232 11.912 103.128 11.868 103.031 11.8093C102.934 11.7507 102.843 11.6774 102.767 11.5967C102.691 11.5088 102.622 11.4208 102.566 11.3182C102.511 11.2156 102.469 11.1056 102.434 10.9883C102.4 10.871 102.386 10.7537 102.386 10.6218C102.386 10.4898 102.4 10.3725 102.434 10.2552C102.469 10.138 102.511 10.028 102.566 9.92537C102.622 9.82274 102.691 9.72744 102.767 9.64681C102.85 9.55884 102.934 9.49286 103.031 9.42689C103.128 9.36091 103.232 9.32426 103.343 9.28761C103.454 9.25828 103.565 9.23629 103.689 9.23629C103.814 9.23629 103.925 9.25095 104.036 9.28761C104.147 9.31693 104.251 9.36824 104.348 9.42689C104.445 9.48553 104.535 9.55884 104.612 9.64681C104.695 9.72744 104.757 9.82274 104.82 9.92537C104.875 10.028 104.917 10.138 104.951 10.2552C104.986 10.3725 105 10.4972 105 10.6218ZM104.716 10.6218C104.716 10.5191 104.702 10.4165 104.681 10.3139C104.66 10.2186 104.626 10.1306 104.577 10.0427C104.528 9.95469 104.48 9.88139 104.417 9.81541C104.355 9.74943 104.286 9.69079 104.209 9.63947C104.133 9.58816 104.05 9.55151 103.967 9.52952C103.877 9.50019 103.786 9.48553 103.689 9.48553C103.544 9.48553 103.412 9.51485 103.294 9.5735C103.169 9.63214 103.065 9.71278 102.968 9.80808C102.878 9.91071 102.809 10.028 102.753 10.1673C102.698 10.3066 102.677 10.4532 102.677 10.6071C102.677 10.7611 102.705 10.9077 102.753 11.047C102.802 11.1862 102.878 11.3035 102.968 11.4061C103.058 11.5088 103.169 11.5894 103.294 11.6407C103.419 11.6994 103.551 11.7287 103.689 11.7287C103.828 11.7287 103.953 11.6994 104.071 11.6481C104.189 11.5967 104.293 11.5308 104.383 11.4355H104.001C103.939 11.4355 103.891 11.4135 103.87 11.3622L103.71 10.937C103.71 10.937 103.682 10.9003 103.669 10.893C103.655 10.8857 103.634 10.8783 103.606 10.8783H103.551V11.4355H103.079V9.7641H103.696C103.814 9.7641 103.911 9.77143 104.001 9.79342C104.085 9.81541 104.154 9.85206 104.209 9.88872C104.265 9.9327 104.307 9.98402 104.327 10.0427C104.355 10.1013 104.369 10.1746 104.369 10.2552C104.369 10.3066 104.369 10.3579 104.348 10.4092C104.334 10.4532 104.32 10.4972 104.293 10.5411C104.265 10.5851 104.237 10.6218 104.203 10.6511C104.161 10.6804 104.119 10.7097 104.064 10.7317C104.099 10.7537 104.126 10.7757 104.154 10.805C104.182 10.8344 104.196 10.871 104.216 10.9077L104.431 11.3842C104.522 11.2889 104.591 11.1716 104.639 11.0396C104.688 10.9077 104.716 10.7684 104.716 10.6071V10.6218ZM103.897 10.2552C103.897 10.2552 103.884 10.2113 103.87 10.1966C103.856 10.1819 103.835 10.1673 103.807 10.1599C103.78 10.1526 103.745 10.1453 103.696 10.1453H103.551V10.5485H103.662C103.717 10.5485 103.759 10.5485 103.793 10.5338C103.828 10.5265 103.849 10.5118 103.863 10.4972C103.877 10.4825 103.89 10.4605 103.897 10.4312C103.897 10.4019 103.897 10.3725 103.897 10.3432C103.897 10.3139 103.897 10.2846 103.897 10.2626V10.2552Z" fill="white"/>
</svg>
